<mxfile host="Electron" agent="Mozilla/5.0 (Windows NT 10.0; Win64; x64) AppleWebKit/537.36 (KHTML, like Gecko) draw.io/24.7.17 Chrome/128.0.6613.36 Electron/32.0.1 Safari/537.36" version="24.7.17">
  <diagram name="Page-1" id="R3Oo267WD_pgpOUhaTHi">
    <mxGraphModel dx="1050" dy="621" grid="1" gridSize="10" guides="1" tooltips="1" connect="1" arrows="1" fold="1" page="1" pageScale="1" pageWidth="827" pageHeight="1169" math="0" shadow="0">
      <root>
        <mxCell id="0" />
        <mxCell id="1" parent="0" />
        <mxCell id="R4Yv8xdTjDgD1eww6z6I-464" value="外部服務" style="whiteSpace=wrap;strokeWidth=2;" parent="1" vertex="1">
          <mxGeometry x="800" y="1934" width="697" height="204" as="geometry" />
        </mxCell>
        <mxCell id="R4Yv8xdTjDgD1eww6z6I-465" value="資料庫" style="whiteSpace=wrap;strokeWidth=2;" parent="1" vertex="1">
          <mxGeometry x="1517" y="1934" width="843" height="204" as="geometry" />
        </mxCell>
        <mxCell id="R4Yv8xdTjDgD1eww6z6I-466" value="AI引擎" style="whiteSpace=wrap;strokeWidth=2;" parent="1" vertex="1">
          <mxGeometry x="2581" y="1934" width="217" height="204" as="geometry" />
        </mxCell>
        <mxCell id="R4Yv8xdTjDgD1eww6z6I-467" value="後端服務" style="whiteSpace=wrap;strokeWidth=2;" parent="1" vertex="1">
          <mxGeometry x="808" y="1780" width="2001" height="104" as="geometry" />
        </mxCell>
        <mxCell id="R4Yv8xdTjDgD1eww6z6I-468" value="API服務層" style="whiteSpace=wrap;strokeWidth=2;" parent="1" vertex="1">
          <mxGeometry x="923" y="1626" width="1786" height="104" as="geometry" />
        </mxCell>
        <mxCell id="R4Yv8xdTjDgD1eww6z6I-469" value="前端" style="whiteSpace=wrap;strokeWidth=2;verticalAlign=top;" parent="1" vertex="1">
          <mxGeometry x="1393" y="1140" width="677" height="436" as="geometry" />
        </mxCell>
        <mxCell id="R4Yv8xdTjDgD1eww6z6I-470" value="訪客介紹頁面" style="whiteSpace=wrap;strokeWidth=2;" parent="R4Yv8xdTjDgD1eww6z6I-469" vertex="1">
          <mxGeometry x="46" y="43" width="156" height="54" as="geometry" />
        </mxCell>
        <mxCell id="R4Yv8xdTjDgD1eww6z6I-471" value="首頁" style="whiteSpace=wrap;strokeWidth=2;" parent="R4Yv8xdTjDgD1eww6z6I-469" vertex="1">
          <mxGeometry x="277" y="199" width="92" height="54" as="geometry" />
        </mxCell>
        <mxCell id="R4Yv8xdTjDgD1eww6z6I-472" value="登入註冊頁面" style="whiteSpace=wrap;strokeWidth=2;" parent="R4Yv8xdTjDgD1eww6z6I-469" vertex="1">
          <mxGeometry x="46" y="355" width="156" height="54" as="geometry" />
        </mxCell>
        <mxCell id="R4Yv8xdTjDgD1eww6z6I-473" value="閱讀頁面" style="whiteSpace=wrap;strokeWidth=2;" parent="R4Yv8xdTjDgD1eww6z6I-469" vertex="1">
          <mxGeometry x="484" y="43" width="124" height="54" as="geometry" />
        </mxCell>
        <mxCell id="R4Yv8xdTjDgD1eww6z6I-474" value="成就系統頁面" style="whiteSpace=wrap;strokeWidth=2;" parent="R4Yv8xdTjDgD1eww6z6I-469" vertex="1">
          <mxGeometry x="468" y="147" width="156" height="54" as="geometry" />
        </mxCell>
        <mxCell id="R4Yv8xdTjDgD1eww6z6I-475" value="討論互動社區頁面" style="whiteSpace=wrap;strokeWidth=2;" parent="R4Yv8xdTjDgD1eww6z6I-469" vertex="1">
          <mxGeometry x="452" y="251" width="188" height="54" as="geometry" />
        </mxCell>
        <mxCell id="R4Yv8xdTjDgD1eww6z6I-476" value="總人物關係圖譜頁面" style="whiteSpace=wrap;strokeWidth=2;" parent="R4Yv8xdTjDgD1eww6z6I-469" vertex="1">
          <mxGeometry x="444" y="355" width="204" height="54" as="geometry" />
        </mxCell>
        <mxCell id="R4Yv8xdTjDgD1eww6z6I-477" value="" style="curved=1;startArrow=none;endArrow=block;exitX=1;exitY=0.5;entryX=0.34;entryY=0;rounded=0;" parent="R4Yv8xdTjDgD1eww6z6I-469" source="R4Yv8xdTjDgD1eww6z6I-470" target="R4Yv8xdTjDgD1eww6z6I-471" edge="1">
          <mxGeometry relative="1" as="geometry">
            <Array as="points">
              <mxPoint x="239" y="70" />
            </Array>
          </mxGeometry>
        </mxCell>
        <mxCell id="R4Yv8xdTjDgD1eww6z6I-478" value="" style="curved=1;startArrow=none;endArrow=block;exitX=1;exitY=0.5;entryX=0.34;entryY=1;rounded=0;" parent="R4Yv8xdTjDgD1eww6z6I-469" source="R4Yv8xdTjDgD1eww6z6I-472" target="R4Yv8xdTjDgD1eww6z6I-471" edge="1">
          <mxGeometry relative="1" as="geometry">
            <Array as="points">
              <mxPoint x="239" y="382" />
            </Array>
          </mxGeometry>
        </mxCell>
        <mxCell id="R4Yv8xdTjDgD1eww6z6I-479" value="" style="curved=1;startArrow=none;endArrow=block;exitX=0.65;exitY=0;entryX=0;entryY=0.5;rounded=0;" parent="R4Yv8xdTjDgD1eww6z6I-469" source="R4Yv8xdTjDgD1eww6z6I-471" target="R4Yv8xdTjDgD1eww6z6I-473" edge="1">
          <mxGeometry relative="1" as="geometry">
            <Array as="points">
              <mxPoint x="406" y="70" />
            </Array>
          </mxGeometry>
        </mxCell>
        <mxCell id="R4Yv8xdTjDgD1eww6z6I-480" value="" style="curved=1;startArrow=none;endArrow=block;exitX=0.97;exitY=0;entryX=0;entryY=0.5;rounded=0;" parent="R4Yv8xdTjDgD1eww6z6I-469" source="R4Yv8xdTjDgD1eww6z6I-471" target="R4Yv8xdTjDgD1eww6z6I-474" edge="1">
          <mxGeometry relative="1" as="geometry">
            <Array as="points">
              <mxPoint x="406" y="174" />
            </Array>
          </mxGeometry>
        </mxCell>
        <mxCell id="R4Yv8xdTjDgD1eww6z6I-481" value="" style="curved=1;startArrow=none;endArrow=block;exitX=0.97;exitY=1;entryX=0;entryY=0.5;rounded=0;" parent="R4Yv8xdTjDgD1eww6z6I-469" source="R4Yv8xdTjDgD1eww6z6I-471" target="R4Yv8xdTjDgD1eww6z6I-475" edge="1">
          <mxGeometry relative="1" as="geometry">
            <Array as="points">
              <mxPoint x="406" y="278" />
            </Array>
          </mxGeometry>
        </mxCell>
        <mxCell id="R4Yv8xdTjDgD1eww6z6I-482" value="" style="curved=1;startArrow=none;endArrow=block;exitX=0.65;exitY=1;entryX=0;entryY=0.5;rounded=0;" parent="R4Yv8xdTjDgD1eww6z6I-469" source="R4Yv8xdTjDgD1eww6z6I-471" target="R4Yv8xdTjDgD1eww6z6I-476" edge="1">
          <mxGeometry relative="1" as="geometry">
            <Array as="points">
              <mxPoint x="406" y="382" />
            </Array>
          </mxGeometry>
        </mxCell>
        <mxCell id="R4Yv8xdTjDgD1eww6z6I-483" value="API閘道器" style="whiteSpace=wrap;strokeWidth=2;" parent="1" vertex="1">
          <mxGeometry x="1667" y="1651" width="131" height="54" as="geometry" />
        </mxCell>
        <mxCell id="R4Yv8xdTjDgD1eww6z6I-484" value="認證服務" style="whiteSpace=wrap;strokeWidth=2;" parent="1" vertex="1">
          <mxGeometry x="931" y="1805" width="124" height="54" as="geometry" />
        </mxCell>
        <mxCell id="R4Yv8xdTjDgD1eww6z6I-485" value="原文與專家解讀&#xa;內容閱讀服務" style="whiteSpace=wrap;strokeWidth=2;" parent="1" vertex="1">
          <mxGeometry x="1552" y="1805" width="156" height="54" as="geometry" />
        </mxCell>
        <mxCell id="R4Yv8xdTjDgD1eww6z6I-487" value="AI閱讀理解服務" style="whiteSpace=wrap;strokeWidth=2;" parent="1" vertex="1">
          <mxGeometry x="2604" y="1805" width="170" height="54" as="geometry" />
        </mxCell>
        <mxCell id="R4Yv8xdTjDgD1eww6z6I-488" value="社交互動服務" style="whiteSpace=wrap;strokeWidth=2;" parent="1" vertex="1">
          <mxGeometry x="2190" y="1805" width="156" height="54" as="geometry" />
        </mxCell>
        <mxCell id="R4Yv8xdTjDgD1eww6z6I-489" value="知識圖譜服務" style="whiteSpace=wrap;strokeWidth=2;" parent="1" vertex="1">
          <mxGeometry x="2396" y="1805" width="156" height="54" as="geometry" />
        </mxCell>
        <mxCell id="R4Yv8xdTjDgD1eww6z6I-490" value="媒體管理服務" style="whiteSpace=wrap;strokeWidth=2;" parent="1" vertex="1">
          <mxGeometry x="1855" y="1805" width="156" height="54" as="geometry" />
        </mxCell>
        <mxCell id="R4Yv8xdTjDgD1eww6z6I-491" value="成就系統服務" style="whiteSpace=wrap;strokeWidth=2;" parent="1" vertex="1">
          <mxGeometry x="1142" y="1805" width="156" height="54" as="geometry" />
        </mxCell>
        <mxCell id="R4Yv8xdTjDgD1eww6z6I-492" value="LLM引擎&#xa;GPT/Claude" style="whiteSpace=wrap;strokeWidth=2;" parent="1" vertex="1">
          <mxGeometry x="2615.5" y="2050" width="147" height="78" as="geometry" />
        </mxCell>
        <mxCell id="R4Yv8xdTjDgD1eww6z6I-493" value="用戶基本資料庫&#xa;PostgreSQL&#xa;用戶資料/權限/設定" style="shape=cylinder3;boundedLbl=1;backgroundOutline=1;size=10;strokeWidth=2;whiteSpace=wrap;" parent="1" vertex="1">
          <mxGeometry x="1548" y="1971.5" width="160" height="129" as="geometry" />
        </mxCell>
        <mxCell id="R4Yv8xdTjDgD1eww6z6I-494" value="用戶內容資料庫&#xa;PostgreSQL&#xa;進度/筆記/討論/成就" style="shape=cylinder3;boundedLbl=1;backgroundOutline=1;size=10;strokeWidth=2;whiteSpace=wrap;" parent="1" vertex="1">
          <mxGeometry x="1732" y="1956" width="168" height="154" as="geometry" />
        </mxCell>
        <mxCell id="R4Yv8xdTjDgD1eww6z6I-495" value="紅學知識庫&#xa;Neo4j&#xa;人物關係/背景知識&#xa;/學術資料/紅樓夢原文/專家解讀" style="shape=cylinder3;boundedLbl=1;backgroundOutline=1;size=10;strokeWidth=2;whiteSpace=wrap;" parent="1" vertex="1">
          <mxGeometry x="2011" y="1959" width="151" height="152" as="geometry" />
        </mxCell>
        <mxCell id="R4Yv8xdTjDgD1eww6z6I-496" value="媒體資料庫&#xa;MongoDB&#xa;語音朗讀/圖片&#xa;多媒體內容" style="shape=cylinder3;boundedLbl=1;backgroundOutline=1;size=10;strokeWidth=2;whiteSpace=wrap;" parent="1" vertex="1">
          <mxGeometry x="2190" y="1959" width="119" height="148" as="geometry" />
        </mxCell>
        <mxCell id="R4Yv8xdTjDgD1eww6z6I-497" value="第三方登入" style="whiteSpace=wrap;strokeWidth=2;" parent="1" vertex="1">
          <mxGeometry x="835" y="2009" width="140" height="54" as="geometry" />
        </mxCell>
        <mxCell id="R4Yv8xdTjDgD1eww6z6I-498" value="AI語音朗讀&#xa;服務" style="whiteSpace=wrap;strokeWidth=2;" parent="1" vertex="1">
          <mxGeometry x="1338" y="2009" width="124" height="54" as="geometry" />
        </mxCell>
        <mxCell id="R4Yv8xdTjDgD1eww6z6I-499" value="" style="curved=1;startArrow=none;endArrow=block;exitX=0;exitY=0.59;entryX=0.5;entryY=0;rounded=0;" parent="1" source="R4Yv8xdTjDgD1eww6z6I-483" target="R4Yv8xdTjDgD1eww6z6I-484" edge="1">
          <mxGeometry relative="1" as="geometry">
            <Array as="points">
              <mxPoint x="993" y="1730" />
            </Array>
          </mxGeometry>
        </mxCell>
        <mxCell id="R4Yv8xdTjDgD1eww6z6I-500" value="" style="curved=1;startArrow=none;endArrow=block;exitX=0;exitY=0.71;entryX=0.5;entryY=0;rounded=0;" parent="1" source="R4Yv8xdTjDgD1eww6z6I-483" target="R4Yv8xdTjDgD1eww6z6I-485" edge="1">
          <mxGeometry relative="1" as="geometry">
            <Array as="points">
              <mxPoint x="1426" y="1730" />
            </Array>
          </mxGeometry>
        </mxCell>
        <mxCell id="R4Yv8xdTjDgD1eww6z6I-502" value="" style="curved=1;startArrow=none;endArrow=block;exitX=1;exitY=0.57;entryX=0.5;entryY=0;rounded=0;" parent="1" source="R4Yv8xdTjDgD1eww6z6I-483" target="R4Yv8xdTjDgD1eww6z6I-487" edge="1">
          <mxGeometry relative="1" as="geometry">
            <Array as="points">
              <mxPoint x="2689" y="1730" />
            </Array>
          </mxGeometry>
        </mxCell>
        <mxCell id="R4Yv8xdTjDgD1eww6z6I-503" value="" style="curved=1;startArrow=none;endArrow=block;exitX=1;exitY=0.62;entryX=0.5;entryY=0;rounded=0;" parent="1" source="R4Yv8xdTjDgD1eww6z6I-483" target="R4Yv8xdTjDgD1eww6z6I-488" edge="1">
          <mxGeometry relative="1" as="geometry">
            <Array as="points">
              <mxPoint x="2268" y="1730" />
            </Array>
          </mxGeometry>
        </mxCell>
        <mxCell id="R4Yv8xdTjDgD1eww6z6I-504" value="" style="curved=1;startArrow=none;endArrow=block;exitX=1;exitY=0.58;entryX=0.5;entryY=0;rounded=0;" parent="1" source="R4Yv8xdTjDgD1eww6z6I-483" target="R4Yv8xdTjDgD1eww6z6I-489" edge="1">
          <mxGeometry relative="1" as="geometry">
            <Array as="points">
              <mxPoint x="2474" y="1730" />
            </Array>
          </mxGeometry>
        </mxCell>
        <mxCell id="R4Yv8xdTjDgD1eww6z6I-505" value="" style="curved=1;startArrow=none;endArrow=block;exitX=1;exitY=0.81;entryX=0.5;entryY=0;rounded=0;" parent="1" source="R4Yv8xdTjDgD1eww6z6I-483" target="R4Yv8xdTjDgD1eww6z6I-490" edge="1">
          <mxGeometry relative="1" as="geometry">
            <Array as="points">
              <mxPoint x="1933" y="1730" />
            </Array>
          </mxGeometry>
        </mxCell>
        <mxCell id="R4Yv8xdTjDgD1eww6z6I-506" value="" style="curved=1;startArrow=none;endArrow=block;exitX=0;exitY=0.62;entryX=0.5;entryY=0;rounded=0;" parent="1" source="R4Yv8xdTjDgD1eww6z6I-483" target="R4Yv8xdTjDgD1eww6z6I-491" edge="1">
          <mxGeometry relative="1" as="geometry">
            <Array as="points">
              <mxPoint x="1220" y="1730" />
            </Array>
          </mxGeometry>
        </mxCell>
        <mxCell id="R4Yv8xdTjDgD1eww6z6I-507" value="" style="curved=1;startArrow=none;endArrow=block;exitX=0.5;exitY=1;entryX=0.5;entryY=0;rounded=0;" parent="1" source="R4Yv8xdTjDgD1eww6z6I-487" target="R4Yv8xdTjDgD1eww6z6I-492" edge="1">
          <mxGeometry relative="1" as="geometry">
            <Array as="points" />
          </mxGeometry>
        </mxCell>
        <mxCell id="R4Yv8xdTjDgD1eww6z6I-508" value="" style="curved=1;startArrow=none;endArrow=block;exitX=1;exitY=0.6;entryX=0.35;entryY=0;rounded=0;" parent="1" source="R4Yv8xdTjDgD1eww6z6I-484" target="R4Yv8xdTjDgD1eww6z6I-493" edge="1">
          <mxGeometry relative="1" as="geometry">
            <Array as="points">
              <mxPoint x="1310" y="1920" />
              <mxPoint x="1594" y="1884" />
              <mxPoint x="1594" y="1934" />
            </Array>
          </mxGeometry>
        </mxCell>
        <mxCell id="R4Yv8xdTjDgD1eww6z6I-509" value="" style="curved=1;startArrow=none;endArrow=block;exitX=0.13;exitY=1;entryX=0.5;entryY=0;rounded=0;" parent="1" source="R4Yv8xdTjDgD1eww6z6I-484" target="R4Yv8xdTjDgD1eww6z6I-497" edge="1">
          <mxGeometry relative="1" as="geometry">
            <Array as="points">
              <mxPoint x="905" y="1884" />
            </Array>
          </mxGeometry>
        </mxCell>
        <mxCell id="R4Yv8xdTjDgD1eww6z6I-510" value="" style="curved=1;startArrow=none;endArrow=block;exitX=1;exitY=0.73;entryX=0.5;entryY=0;rounded=0;entryDx=0;entryDy=0;entryPerimeter=0;" parent="1" source="R4Yv8xdTjDgD1eww6z6I-485" target="R4Yv8xdTjDgD1eww6z6I-495" edge="1">
          <mxGeometry relative="1" as="geometry">
            <Array as="points">
              <mxPoint x="1755" y="1884" />
              <mxPoint x="1755" y="1934" />
            </Array>
          </mxGeometry>
        </mxCell>
        <mxCell id="R4Yv8xdTjDgD1eww6z6I-512" value="" style="curved=1;startArrow=none;endArrow=block;exitX=0;exitY=0.62;entryX=0.03;entryY=0;rounded=0;" parent="1" source="R4Yv8xdTjDgD1eww6z6I-487" target="R4Yv8xdTjDgD1eww6z6I-495" edge="1">
          <mxGeometry relative="1" as="geometry">
            <Array as="points">
              <mxPoint x="1985" y="1884" />
              <mxPoint x="1985" y="1934" />
            </Array>
          </mxGeometry>
        </mxCell>
        <mxCell id="R4Yv8xdTjDgD1eww6z6I-513" value="" style="curved=1;startArrow=none;endArrow=block;exitX=0;exitY=0.75;entryX=0.93;entryY=0;rounded=0;" parent="1" source="R4Yv8xdTjDgD1eww6z6I-488" target="R4Yv8xdTjDgD1eww6z6I-494" edge="1">
          <mxGeometry relative="1" as="geometry">
            <Array as="points">
              <mxPoint x="1965" y="1884" />
              <mxPoint x="1965" y="1934" />
            </Array>
          </mxGeometry>
        </mxCell>
        <mxCell id="R4Yv8xdTjDgD1eww6z6I-514" value="" style="curved=1;startArrow=none;endArrow=block;exitX=0;exitY=0.74;entryX=0.91;entryY=0;rounded=0;" parent="1" source="R4Yv8xdTjDgD1eww6z6I-489" target="R4Yv8xdTjDgD1eww6z6I-495" edge="1">
          <mxGeometry relative="1" as="geometry">
            <Array as="points">
              <mxPoint x="2162" y="1884" />
              <mxPoint x="2162" y="1934" />
            </Array>
          </mxGeometry>
        </mxCell>
        <mxCell id="R4Yv8xdTjDgD1eww6z6I-515" value="" style="curved=1;startArrow=none;endArrow=block;exitX=1;exitY=0.73;entryX=0.51;entryY=0;rounded=0;" parent="1" source="R4Yv8xdTjDgD1eww6z6I-490" target="R4Yv8xdTjDgD1eww6z6I-496" edge="1">
          <mxGeometry relative="1" as="geometry">
            <Array as="points">
              <mxPoint x="2265" y="1884" />
            </Array>
          </mxGeometry>
        </mxCell>
        <mxCell id="R4Yv8xdTjDgD1eww6z6I-516" value="" style="curved=1;startArrow=none;endArrow=block;exitX=0;exitY=0.64;entryX=0.5;entryY=0;rounded=0;" parent="1" source="R4Yv8xdTjDgD1eww6z6I-490" target="R4Yv8xdTjDgD1eww6z6I-498" edge="1">
          <mxGeometry relative="1" as="geometry">
            <Array as="points">
              <mxPoint x="1400" y="1884" />
            </Array>
          </mxGeometry>
        </mxCell>
        <mxCell id="R4Yv8xdTjDgD1eww6z6I-517" value="" style="curved=1;startArrow=none;endArrow=block;exitX=1;exitY=0.68;entryX=0.5;entryY=0;rounded=0;entryDx=0;entryDy=0;entryPerimeter=0;" parent="1" source="R4Yv8xdTjDgD1eww6z6I-491" target="R4Yv8xdTjDgD1eww6z6I-494" edge="1">
          <mxGeometry relative="1" as="geometry">
            <Array as="points">
              <mxPoint x="1642" y="1884" />
              <mxPoint x="1642" y="1934" />
            </Array>
          </mxGeometry>
        </mxCell>
        <mxCell id="R4Yv8xdTjDgD1eww6z6I-518" value="" style="curved=1;dashed=1;dashPattern=2 3;startArrow=none;endArrow=block;exitX=0.5;exitY=1;entryX=0.5;entryY=0;rounded=0;" parent="1" source="R4Yv8xdTjDgD1eww6z6I-469" target="R4Yv8xdTjDgD1eww6z6I-483" edge="1">
          <mxGeometry relative="1" as="geometry">
            <Array as="points" />
          </mxGeometry>
        </mxCell>
      </root>
    </mxGraphModel>
  </diagram>
</mxfile>
